<svg width="80" height="30" viewBox="0 0 80 30" fill="none" xmlns="http://www.w3.org/2000/svg">
<path d="M12.7894 30C8.78209 30 5.64157 29.0282 3.36789 27.0845C1.12263 25.1408 0 22.2113 0 18.2958V1.05634C0 0.746479 0.0994735 0.492958 0.29842 0.295776C0.525788 0.098592 0.781577 0 1.06579 0H6.56525C6.87788 0 7.13367 0.098592 7.33262 0.295776C7.55999 0.492958 7.67367 0.746479 7.67367 1.05634V18.2535C7.67367 20.0845 8.09999 21.4648 8.95261 22.3944C9.83367 23.2958 11.0984 23.7465 12.7468 23.7465C14.3668 23.7465 15.6173 23.2817 16.4984 22.3521C17.3794 21.4225 17.82 20.0563 17.82 18.2535V1.05634C17.82 0.746479 17.9194 0.492958 18.1184 0.295776C18.3458 0.098592 18.6015 0 18.8858 0H24.4278C24.7405 0 24.9963 0.098592 25.1952 0.295776C25.3942 0.492958 25.4936 0.746479 25.4936 1.05634V18.2958C25.4936 22.2113 24.3568 25.1408 22.0831 27.0845C19.8379 29.0282 16.74 30 12.7894 30Z" fill="white"/>
<path d="M30.9478 29.5775C30.6636 29.5775 30.4078 29.4789 30.1804 29.2817C29.9815 29.0563 29.882 28.8028 29.882 28.5211V23.1549C29.882 22.8451 29.9815 22.5916 30.1804 22.3944C30.4078 22.1972 30.6636 22.0986 30.9478 22.0986H36.362C36.6746 22.0986 36.9304 22.1972 37.1294 22.3944C37.3283 22.5916 37.4278 22.8451 37.4278 23.1549V28.5211C37.4278 28.8028 37.3283 29.0563 37.1294 29.2817C36.9304 29.4789 36.6746 29.5775 36.362 29.5775H30.9478Z" fill="white"/>
<path d="M41.1018 29.5775C40.846 29.5775 40.6186 29.493 40.4197 29.3239C40.2491 29.1268 40.1639 28.9155 40.1639 28.6901C40.1639 28.493 40.2207 28.3239 40.3344 28.1831L49.6281 14.493L41.0165 1.39437C40.9312 1.22535 40.8886 1.05634 40.8886 0.887325C40.8886 0.661973 40.9739 0.464789 41.1444 0.295776C41.3149 0.098592 41.5281 0 41.7839 0H47.9654C48.3065 0 48.5907 0.0845076 48.8181 0.253523C49.0454 0.422536 49.2586 0.633804 49.4575 0.887325L54.5307 8.53521L59.6891 0.887325C60.0586 0.295775 60.5559 0 61.1812 0H67.0643C67.2917 0 67.4907 0.098592 67.6612 0.295776C67.8601 0.464789 67.9596 0.661973 67.9596 0.887325C67.9596 1.08451 67.9028 1.25352 67.7891 1.39437L59.1349 14.4507L68.5138 28.1831C68.5991 28.2958 68.6417 28.4648 68.6417 28.6901C68.6417 28.9155 68.5564 29.1268 68.3859 29.3239C68.2154 29.493 68.0022 29.5775 67.7464 29.5775H61.3943C60.7975 29.5775 60.3001 29.2958 59.9022 28.7324L54.2749 20.6197L48.6902 28.7324C48.3775 29.2958 47.8944 29.5775 47.2407 29.5775H41.1018Z" fill="white"/>
<path d="M73.179 29.5775C72.8948 29.5775 72.639 29.4789 72.4116 29.2817C72.2126 29.0563 72.1132 28.8028 72.1132 28.5211V1.05634C72.1132 0.746479 72.2126 0.492958 72.4116 0.295776C72.639 0.098592 72.8948 0 73.179 0H78.8916C79.2042 0 79.46 0.098592 79.659 0.295776C79.8863 0.492958 80 0.746479 80 1.05634V28.5211C80 28.831 79.8863 29.0845 79.659 29.2817C79.46 29.4789 79.2042 29.5775 78.8916 29.5775H73.179Z" fill="white"/>
</svg>
